<svg width="50" height="51" viewBox="0 0 50 51" fill="none" xmlns="http://www.w3.org/2000/svg">
<path fill-rule="evenodd" clip-rule="evenodd" d="M25.1683 50.3499C38.8825 50.3499 50 39.2323 50 25.5181C50 11.8039 38.8825 0.68634 25.1683 0.68634C11.454 0.68634 0.336487 11.8039 0.336487 25.5181C0.336487 39.2323 11.454 50.3499 25.1683 50.3499ZM37.1835 46.6413C36.1654 35.1624 39.0683 23.6773 45.4185 14.0608C33.9153 14.7519 22.5174 11.5234 13.0854 4.90227L12.7518 4.66805L12.7878 5.0741C13.8059 16.553 10.9029 28.0381 4.55276 37.6546C16.056 36.9635 27.4538 40.192 36.8858 46.8131L37.2195 47.0474L37.1835 46.6413Z" fill="#5A5A5A"/>
<path d="M27.8532 14.679V14.679C28.9534 20.0571 31.8442 24.9035 36.0536 28.427L36.2025 28.5517L36.0112 28.5852C30.604 29.532 25.6773 32.2837 22.0354 36.3912V36.3912V36.3912C20.9352 31.013 18.0445 26.1667 13.8351 22.6431L13.6861 22.5185L13.8774 22.485C19.2847 21.5382 24.2113 18.7865 27.8532 14.679V14.679Z" fill="#5A5A5A"/>
</svg>
