<?xml version="1.0" standalone="no"?>
<!DOCTYPE svg PUBLIC "-//W3C//DTD SVG 20010904//EN"
 "http://www.w3.org/TR/2001/REC-SVG-20010904/DTD/svg10.dtd">
<svg version="1.0" xmlns="http://www.w3.org/2000/svg"
 width="816.000000pt" height="816.000000pt" viewBox="0 0 816.000000 816.000000"
 preserveAspectRatio="xMidYMid meet">
<metadata>
Created by potrace 1.14, written by Peter Selinger 2001-2017
</metadata>
<g transform="translate(0.000000,816.000000) scale(0.100000,-0.100000)"
fill="#000000" stroke="none">
<path d="M3848 8045 c-2 -2 -40 -6 -86 -10 -45 -3 -90 -8 -99 -9 -10 -2 -47
-7 -83 -11 -36 -4 -74 -9 -85 -11 -11 -2 -33 -6 -50 -9 -50 -9 -132 -25 -210
-41 -52 -11 -260 -66 -267 -71 -5 -2 -16 -6 -26 -8 -55 -10 -347 -119 -447
-166 -38 -18 -72 -34 -75 -34 -10 -2 -188 -94 -248 -129 -35 -20 -66 -36 -68
-36 -12 0 -298 -190 -302 -201 -2 -5 -8 -9 -13 -9 -11 0 -92 -60 -97 -72 -2
-5 -8 -8 -13 -8 -6 0 -21 -10 -34 -22 -13 -13 -30 -28 -37 -33 -96 -75 -112
-89 -269 -241 -164 -158 -301 -313 -413 -469 -11 -14 -28 -36 -38 -47 -10 -12
-18 -24 -18 -28 0 -3 -8 -15 -18 -26 -17 -18 -52 -69 -62 -89 -3 -5 -22 -35
-42 -66 -20 -30 -47 -73 -59 -95 -12 -21 -33 -57 -46 -79 -13 -22 -26 -48 -29
-57 -4 -10 -10 -18 -15 -18 -5 0 -8 -3 -7 -7 1 -7 -38 -91 -61 -133 -26 -46
-141 -319 -156 -370 -4 -14 -13 -38 -21 -55 -15 -35 -67 -203 -69 -225 0 -9
-4 -20 -7 -26 -4 -6 -9 -21 -12 -35 -3 -13 -10 -44 -17 -69 -6 -25 -12 -52
-14 -60 -2 -8 -8 -33 -13 -55 -6 -22 -16 -74 -22 -115 -7 -41 -14 -84 -16 -95
-8 -40 -14 -81 -19 -125 -2 -25 -7 -60 -9 -78 -24 -161 -24 -736 0 -857 2 -11
7 -42 10 -70 3 -27 8 -61 10 -75 2 -14 7 -47 10 -75 3 -27 9 -54 12 -59 3 -6
6 -24 8 -40 1 -17 7 -51 14 -76 7 -25 14 -54 15 -65 4 -26 11 -53 45 -175 12
-41 23 -82 25 -90 2 -8 4 -16 5 -17 3 -4 6 -14 15 -51 4 -18 12 -35 16 -38 5
-3 9 -13 9 -22 0 -9 16 -58 36 -107 19 -50 37 -97 39 -106 2 -9 8 -25 13 -35
13 -25 65 -138 67 -144 2 -14 128 -255 161 -311 22 -35 45 -77 53 -92 8 -15
18 -27 23 -27 4 0 8 -5 8 -10 0 -13 107 -173 174 -260 202 -263 474 -547 662
-692 16 -12 36 -30 45 -40 9 -10 20 -18 25 -18 5 0 27 -16 49 -36 46 -40 269
-192 365 -249 146 -85 279 -155 296 -155 7 0 14 -4 16 -8 3 -8 189 -93 257
-117 23 -8 47 -18 54 -22 7 -4 17 -8 22 -9 6 -2 44 -15 85 -30 41 -14 89 -30
105 -34 17 -5 62 -18 100 -30 39 -12 79 -23 90 -26 11 -2 47 -11 80 -19 33 -9
71 -18 85 -21 14 -2 45 -9 70 -14 56 -12 152 -28 205 -35 22 -2 58 -7 80 -10
331 -45 868 -35 1130 22 17 3 41 7 55 9 14 1 50 7 80 13 61 12 90 19 195 44
153 37 409 121 545 180 14 5 27 11 30 12 54 18 275 126 282 138 4 7 8 8 8 4 0
-5 19 2 43 16 23 14 65 37 92 52 28 15 62 36 77 46 14 11 29 19 32 19 8 0 249
163 291 196 16 13 35 28 40 32 31 23 101 77 105 82 3 3 34 30 70 60 119 100
274 251 375 365 105 119 124 141 160 190 16 22 32 42 35 45 3 3 17 21 30 40
14 19 32 44 42 54 10 11 18 23 18 27 0 4 6 14 13 21 21 23 77 108 77 117 0 5
4 11 8 13 16 6 240 402 247 438 1 3 15 34 32 70 29 60 112 262 118 285 1 6 5
17 8 25 11 30 59 175 62 190 2 8 13 45 24 83 11 37 18 67 16 67 -3 0 0 11 5
25 5 14 12 36 14 48 3 12 8 33 11 47 3 14 8 34 10 45 2 11 8 45 14 75 7 30 14
71 17 90 2 19 7 49 9 65 5 30 12 80 20 145 14 115 20 241 20 445 -1 237 -11
430 -29 530 -3 17 -9 49 -12 73 -7 49 -12 77 -14 77 -1 0 -3 16 -5 35 -3 19
-7 46 -10 60 -3 14 -10 45 -15 70 -5 25 -12 55 -14 68 -3 13 -8 32 -11 42 -3
10 -7 27 -9 37 -2 10 -10 38 -17 63 -7 25 -13 47 -14 50 0 3 -16 52 -35 110
-19 58 -35 108 -36 113 -1 4 -3 9 -4 12 -1 3 -3 8 -5 13 -1 4 -5 16 -10 27
-79 197 -107 262 -166 380 -39 77 -74 147 -79 155 -19 35 -185 306 -192 315
-4 6 -42 57 -84 115 -43 58 -89 119 -103 136 -14 16 -37 44 -49 61 -62 82
-322 350 -437 450 -170 148 -408 320 -600 433 -210 124 -532 274 -710 330 -22
7 -44 15 -50 18 -5 3 -16 7 -25 8 -8 1 -35 8 -60 17 -38 13 -72 23 -145 43 -5
2 -19 5 -30 7 -11 3 -38 10 -60 15 -41 11 -214 47 -272 56 -112 19 -177 28
-318 41 -22 2 -40 4 -40 6 0 3 -564 7 -567 4z m-1691 -655 c30 -28 351 -240
363 -240 5 0 10 -4 10 -9 0 -5 14 -14 30 -21 17 -7 30 -17 30 -22 0 -5 4 -7 9
-4 5 3 14 -1 21 -9 7 -8 19 -15 26 -15 8 0 14 -4 14 -10 0 -5 4 -10 10 -10 5
0 31 -13 57 -29 77 -47 134 -79 198 -112 33 -18 63 -37 67 -43 4 -6 8 -7 8 -2
0 5 6 4 13 -2 11 -9 314 -166 329 -171 4 -1 47 -20 95 -42 49 -22 93 -41 98
-42 6 -1 12 -5 15 -9 3 -3 28 -15 55 -26 28 -11 106 -43 175 -72 164 -67 535
-203 590 -215 8 -2 15 -4 15 -5 0 -1 7 -3 15 -5 8 -2 53 -16 100 -31 47 -14
96 -28 110 -31 14 -2 34 -8 45 -13 24 -10 204 -57 245 -64 8 -2 33 -8 55 -14
22 -6 51 -13 65 -15 14 -3 43 -10 65 -15 38 -11 157 -36 220 -47 17 -2 41 -7
55 -10 65 -13 145 -27 175 -29 18 -2 37 -6 42 -9 4 -3 39 -8 78 -12 38 -3 72
-8 75 -10 3 -1 30 -6 60 -9 30 -4 71 -9 90 -11 19 -3 58 -7 85 -10 28 -3 72
-8 99 -11 26 -3 78 -8 115 -10 36 -3 91 -6 121 -9 250 -18 646 -23 903 -12 75
3 137 4 137 1 0 -6 -24 -48 -31 -54 -18 -16 -197 -314 -314 -525 -60 -107
-235 -459 -235 -471 0 -8 -4 -14 -10 -14 -5 0 -10 -6 -10 -13 0 -6 -25 -68
-55 -136 -84 -186 -238 -583 -250 -643 -2 -9 -9 -27 -16 -40 -7 -13 -11 -23
-10 -23 1 0 0 -7 -3 -15 -13 -38 -79 -256 -81 -269 -2 -9 -4 -16 -5 -16 -1 0
-3 -7 -5 -15 -2 -8 -18 -67 -35 -130 -18 -63 -34 -124 -37 -135 -2 -11 -5 -24
-7 -30 -2 -5 -7 -28 -11 -50 -12 -55 -12 -55 -15 -57 -1 -2 -3 -10 -5 -18 -5
-24 -34 -163 -39 -190 -3 -14 -8 -36 -11 -50 -3 -14 -7 -36 -10 -50 -3 -14 -7
-36 -10 -50 -3 -14 -7 -38 -10 -55 -3 -16 -8 -43 -12 -60 -3 -16 -7 -41 -8
-55 -4 -31 -13 -97 -19 -130 -5 -23 -18 -125 -32 -230 -3 -25 -7 -65 -9 -90
-2 -25 -6 -65 -9 -90 -5 -48 -12 -129 -21 -250 -3 -41 -8 -136 -11 -210 -3
-74 -6 -152 -7 -173 -1 -20 2 -37 7 -37 5 0 5 -5 0 -13 -7 -9 -9 -111 -3 -227
0 -8 0 -24 -1 -35 -2 -25 9 -292 14 -360 16 -186 18 -255 8 -255 -6 0 -12 4
-14 8 -6 15 -536 362 -553 362 -3 0 -33 17 -67 38 -146 89 -415 230 -633 331
-60 29 -121 58 -135 65 -14 8 -29 15 -35 16 -5 1 -29 10 -52 21 -40 18 -91 40
-103 44 -3 1 -18 7 -35 14 -93 38 -219 86 -280 108 -38 13 -79 28 -90 34 -11
5 -29 11 -40 14 -11 2 -65 20 -120 40 -55 19 -109 37 -120 39 -11 2 -41 11
-66 20 -25 8 -54 17 -65 19 -10 2 -26 7 -34 10 -34 14 -383 105 -430 112 -14
2 -26 4 -27 4 -2 1 -6 2 -10 2 -5 1 -18 5 -31 10 -13 5 -37 11 -55 14 -18 3
-66 13 -107 21 -41 9 -84 18 -95 19 -11 2 -33 6 -50 9 -16 4 -46 9 -65 11 -19
3 -42 7 -50 10 -8 3 -33 7 -55 10 -22 3 -49 7 -60 9 -11 2 -47 7 -80 11 -33 4
-69 9 -80 11 -11 3 -39 7 -62 9 -23 3 -59 7 -80 9 -21 3 -60 7 -88 10 -27 3
-79 8 -115 12 -36 4 -83 8 -105 10 -22 1 -94 6 -160 10 -145 10 -874 11 -928
2 l-38 -7 20 32 c11 18 27 47 37 65 9 17 20 32 25 32 5 0 9 4 9 9 0 5 34 64
75 130 41 67 75 124 75 127 0 3 8 18 18 32 44 63 225 409 320 612 79 170 95
205 95 218 0 6 4 12 9 12 4 0 8 8 8 18 0 10 4 22 9 27 4 6 29 64 55 130 26 66
54 136 62 155 9 19 18 42 20 50 3 14 143 424 145 425 0 0 2 7 4 15 2 8 22 78
44 155 23 77 43 150 46 162 2 12 6 26 9 31 3 5 8 23 11 41 3 17 12 57 21 89 8
31 17 66 19 77 2 11 6 31 9 45 4 14 8 34 10 45 2 11 9 38 14 60 6 22 13 57 16
77 3 21 10 58 16 83 6 25 13 62 16 81 3 20 7 44 9 53 1 9 6 36 10 61 4 25 9
54 12 65 2 11 6 38 8 60 3 22 7 51 10 65 3 14 7 48 10 75 4 28 8 61 10 75 4
28 12 98 20 180 3 30 8 78 11 105 33 309 37 945 9 1330 -12 154 -12 175 -6
175 4 0 17 -9 28 -20z"/>
<path d="M4395 5665 c-160 -161 -241 -235 -257 -235 -6 0 -9 -3 -5 -6 3 -3
-24 -29 -61 -57 -37 -28 -73 -57 -80 -64 -7 -7 -17 -13 -21 -13 -4 0 -17 -9
-29 -21 -70 -64 -364 -247 -542 -336 -41 -21 -78 -42 -81 -46 -3 -5 -9 -8 -13
-8 -3 1 -31 -10 -61 -24 -31 -14 -83 -36 -118 -50 -34 -14 -71 -30 -82 -35
-38 -18 -350 -119 -430 -139 -101 -25 -270 -62 -301 -65 -38 -4 -39 -13 -3
-43 180 -152 435 -417 544 -567 16 -23 32 -43 35 -46 15 -13 100 -131 100
-139 0 -5 3 -11 8 -13 9 -4 112 -164 170 -264 89 -153 207 -403 264 -559 28
-73 86 -246 92 -270 2 -5 8 -30 15 -55 7 -25 15 -52 17 -60 2 -8 10 -42 18
-76 8 -34 17 -73 20 -89 3 -15 7 -30 10 -33 3 -2 70 60 149 139 80 79 168 164
197 189 30 25 65 55 79 67 37 32 37 32 134 106 86 66 322 227 332 227 2 0 28
15 57 33 128 78 337 181 508 249 82 33 239 89 255 92 6 1 15 5 20 8 6 4 64 21
128 38 153 41 133 36 279 66 l127 27 -30 28 c-17 16 -33 29 -36 29 -14 0 -283
267 -373 371 -36 40 -67 76 -70 79 -3 3 -18 23 -35 45 -16 22 -37 47 -47 56
-10 9 -18 19 -18 22 0 6 -81 117 -117 162 -9 10 -21 28 -27 40 -24 43 -69 110
-80 117 -6 4 -7 8 -2 8 5 0 2 8 -6 18 -9 9 -25 35 -37 57 -37 68 -86 159 -104
190 -46 82 -207 455 -207 480 0 2 -5 16 -12 32 -6 15 -13 39 -15 53 -2 13 -8
29 -13 35 -5 6 -11 23 -14 38 -2 15 -7 30 -10 35 -3 5 -7 19 -10 33 -4 22 -48
202 -64 260 -7 24 -14 18 -147 -116z"/>
</g>
</svg>
